{"glyphs":{":":{"x_min":0,"x_max":178,"ha":178,"o":"m 102 350 b 107 372 108 395 111 416 b 116 450 60 439 55 413 b 51 391 47 364 53 342 b 58 317 97 330 102 350 z m 106 213 b 91 212 79 203 74 189 b 66 168 64 145 63 122 b 62 109 79 106 88 108 b 98 110 114 118 115 130 b 117 151 122 172 127 192 b 131 206 118 214 106 213 z"},"$":{"x_min":0,"x_max":480,"ha":480,"o":"m 428 55 b 412 140 325 197 259 243 b 246 252 234 261 221 270 b 223 345 228 419 236 494 b 270 480 297 450 311 416 b 317 402 346 415 340 430 b 322 477 284 511 239 524 b 242 550 245 577 249 604 b 251 621 222 615 220 602 b 217 578 213 553 211 529 b 193 530 174 528 156 523 b 81 499 24 413 62 337 b 81 300 115 270 147 244 b 160 232 174 222 189 211 b 187 130 189 50 194 -31 b 155 -2 131 42 113 86 b 107 101 76 87 82 71 b 105 11 142 -43 197 -72 b 199 -100 202 -127 205 -155 b 207 -173 240 -162 238 -147 b 236 -126 234 -106 232 -85 b 241 -87 250 -89 260 -90 b 299 -95 345 -88 378 -66 b 417 -39 437 8 428 55 z m 191 291 b 177 302 163 313 150 325 b 120 353 97 387 103 430 b 111 482 158 508 207 501 b 199 432 194 362 191 291 z m 341 -39 b 311 -66 266 -64 229 -50 b 223 29 220 109 220 188 b 230 181 239 173 249 166 b 283 139 319 108 340 69 b 359 38 371 -10 341 -39 z"},"?":{"x_min":0,"x_max":441,"ha":441,"o":"m 390 484 b 388 524 375 567 347 597 b 319 628 280 641 239 640 b 159 639 71 581 53 499 b 44 456 55 408 92 380 b 128 351 175 345 220 343 b 233 342 248 367 230 367 b 194 369 153 373 126 398 b 99 423 89 464 96 499 b 110 568 189 616 257 601 b 338 583 334 481 322 417 b 309 343 278 274 249 205 b 217 125 183 43 182 -45 b 182 -65 209 -68 224 -65 b 243 -59 259 -44 260 -24 b 274 152 400 304 390 484 z m 220 -113 b 209 -117 198 -124 195 -136 b 192 -148 192 -161 191 -173 b 191 -179 197 -185 202 -188 b 208 -190 217 -190 224 -189 b 237 -184 252 -173 252 -157 b 251 -145 251 -133 247 -122 b 244 -112 228 -111 220 -113 z"},"<":{"x_min":0,"x_max":338,"ha":338,"o":"m 269 188 b 227 198 185 197 145 208 b 156 216 168 223 180 230 b 202 243 228 255 245 275 b 255 286 248 300 233 299 b 200 296 167 277 138 261 b 110 247 67 232 53 202 b 50 194 47 181 56 175 b 110 139 176 139 238 131 b 256 129 277 138 285 154 b 293 170 285 184 269 188 z"},"'":{"x_min":0,"x_max":169,"ha":169,"o":"m 67 619 b 54 591 50 559 50 529 b 50 505 50 476 77 469 b 88 465 100 476 101 486 b 102 507 104 528 106 549 b 110 572 117 594 119 617 b 122 648 77 640 67 619 z"},"=":{"x_min":0,"x_max":362,"ha":362,"o":"m 164 303 b 199 303 234 299 269 296 b 284 294 301 301 308 315 b 315 328 309 341 295 343 b 258 350 220 351 183 351 b 146 351 107 350 72 338 b 63 336 52 329 50 319 b 49 311 54 302 63 302 b 97 299 130 303 164 303 z m 299 216 b 259 225 215 226 174 227 b 140 227 89 232 66 202 b 60 195 60 184 71 182 b 87 180 104 183 119 183 b 137 184 154 183 171 182 b 209 181 247 176 285 178 b 303 179 327 209 299 216 z"},"a":{"x_min":0,"x_max":359,"ha":359,"o":"m 354 118 b 346 86 335 56 321 27 b 311 6 290 -36 266 -1 b 251 23 253 57 252 84 b 250 116 254 149 257 181 b 263 227 190 211 182 177 b 182 176 182 176 182 175 b 158 132 150 78 131 34 b 123 15 100 -37 78 -5 b 64 14 57 36 53 60 b 45 113 55 166 80 214 b 91 234 103 253 122 266 b 148 282 180 262 184 233 b 186 216 218 227 217 242 b 212 298 148 315 102 301 b 42 282 5 219 -11 162 b -25 109 -28 39 7 -6 b 39 -47 102 -57 136 -13 b 155 11 166 43 176 72 b 176 61 178 49 180 38 b 187 -2 207 -43 252 -50 b 336 -64 370 58 384 120 b 388 137 357 132 354 118 z"},"L":{"x_min":0,"x_max":561,"ha":561,"o":"m 391 62 b 386 111 379 159 373 207 b 371 218 370 229 368 239 b 370 241 372 243 373 245 b 431 307 464 387 476 470 b 482 513 484 559 477 602 b 472 636 459 678 425 693 b 390 708 349 689 325 663 b 295 631 280 586 273 543 b 258 445 268 344 283 247 b 285 233 287 219 289 206 b 274 196 259 188 243 181 b 159 146 58 159 -12 218 b -24 228 -53 208 -39 197 b 58 116 190 121 293 181 b 303 119 313 57 321 -5 b 274 -32 229 -65 200 -111 b 183 -139 176 -173 188 -205 b 199 -237 230 -255 263 -253 b 348 -246 388 -156 395 -82 b 398 -52 397 -23 395 7 b 465 41 538 72 598 123 b 613 136 594 149 581 138 b 525 92 458 63 393 32 b 393 42 392 52 391 62 z m 355 620 b 360 636 368 656 383 665 b 404 676 423 654 431 637 b 450 598 450 549 447 506 b 445 462 436 417 421 375 b 407 339 388 304 364 274 b 355 347 348 420 347 493 b 346 535 344 579 355 620 z m 317 -179 b 311 -196 304 -214 286 -222 b 264 -231 240 -224 227 -205 b 198 -165 224 -116 255 -85 b 275 -65 299 -47 324 -32 b 324 -36 325 -40 325 -45 b 329 -88 333 -138 317 -179 z"},"3":{"x_min":0,"x_max":423,"ha":423,"o":"m 82 416 b 90 448 108 476 135 495 b 163 513 207 520 227 488 b 245 459 224 422 209 397 b 200 382 189 369 176 358 b 160 352 146 342 134 328 b 125 316 121 300 135 290 b 150 280 169 287 183 296 b 187 299 191 301 196 304 b 205 305 222 298 229 294 b 248 283 265 266 276 246 b 306 195 304 134 286 79 b 275 43 247 -11 200 -3 b 146 6 132 77 126 122 b 122 159 57 135 58 103 b 60 43 77 -19 133 -50 b 190 -82 262 -56 305 -13 b 350 32 370 100 373 162 b 376 222 356 283 311 325 b 294 340 272 352 249 359 b 259 372 266 387 272 402 b 288 443 287 493 247 519 b 166 573 70 495 50 414 b 46 395 79 401 82 416 z"},";":{"x_min":0,"x_max":185,"ha":185,"o":"m 75 405 b 71 385 68 365 66 346 b 62 311 114 325 120 349 b 126 369 130 388 135 408 b 143 444 79 434 75 405 z m 72 153 b 66 128 61 104 57 79 b 54 58 47 30 52 9 b 56 -8 81 0 87 11 b 100 32 104 59 110 82 b 116 107 123 131 129 156 b 136 189 79 179 72 153 z"},"J":{"x_min":0,"x_max":588,"ha":588,"o":"m 456 720 b 400 706 349 681 298 656 b 246 630 194 604 137 593 b 79 582 0 595 -13 664 b -16 680 -45 670 -43 656 b -34 607 8 575 56 567 b 113 557 172 575 225 597 b 255 609 284 623 313 638 b 313 637 313 636 313 635 b 324 517 348 400 363 282 b 365 265 367 248 369 231 b 329 244 288 250 246 245 b 189 239 133 213 96 168 b 57 121 45 59 58 1 b 71 -58 106 -115 157 -149 b 207 -181 274 -186 327 -157 b 437 -96 453 46 452 163 b 503 138 555 114 612 112 b 624 111 638 133 621 135 b 559 143 506 171 451 198 b 451 198 451 199 451 199 b 445 353 412 504 394 657 b 393 664 391 669 387 672 b 426 689 540 734 536 669 b 535 654 566 663 567 678 b 571 738 493 730 456 720 z m 354 -63 b 346 -87 331 -111 312 -127 b 288 -147 262 -154 232 -148 b 173 -136 128 -85 105 -33 b 82 19 77 82 105 133 b 132 183 185 212 240 219 b 286 224 330 215 372 199 b 374 168 376 136 376 104 b 376 49 373 -11 354 -63 z"},"V":{"x_min":0,"x_max":536,"ha":536,"o":"m 405 342 b 412 440 416 542 395 638 b 388 673 376 717 346 739 b 316 762 277 747 253 724 b 191 665 195 563 210 486 b 229 388 277 264 357 187 b 347 128 331 68 306 14 b 296 -5 258 -83 228 -57 b 215 -46 206 -25 200 -10 b 191 8 185 28 180 48 b 158 127 154 214 149 296 b 142 391 137 494 101 584 b 89 616 67 656 30 664 b 1 671 -30 660 -41 631 b -48 614 -15 620 -10 633 b -1 656 24 626 28 616 b 37 597 37 574 41 554 b 49 508 55 462 60 415 b 69 318 68 220 82 124 b 88 80 96 34 115 -6 b 132 -43 159 -81 200 -92 b 288 -117 334 -1 356 63 b 367 96 376 130 383 165 b 433 126 493 106 565 118 b 583 121 584 146 563 143 b 499 131 437 159 389 201 b 397 248 402 295 405 342 z m 356 235 b 304 298 270 381 249 459 b 230 533 215 633 264 699 b 277 716 298 732 319 721 b 335 712 344 690 351 673 b 367 632 372 587 376 543 b 383 452 378 360 368 270 b 367 256 365 242 363 227 b 361 230 358 233 356 235 z"},"\"":{"x_min":0,"x_max":255,"ha":255,"o":"m 116 551 b 115 571 116 591 117 611 b 117 628 94 631 82 627 b 66 623 53 611 52 594 b 50 564 41 466 92 471 b 105 472 125 484 118 500 b 112 513 116 537 116 551 z m 146 609 b 140 584 137 558 136 533 b 136 512 135 484 149 467 b 153 462 163 463 168 464 b 175 466 182 469 185 475 b 195 493 192 519 194 539 b 196 563 200 588 204 612 b 211 647 153 635 146 609 z"},"7":{"x_min":0,"x_max":354,"ha":354,"o":"m 70 498 b 96 510 127 521 156 520 b 184 519 195 497 198 472 b 205 416 199 359 193 304 b 189 264 183 223 177 183 b 164 182 152 182 139 182 b 124 181 113 158 133 158 b 147 158 160 159 173 160 b 162 92 151 25 143 -43 b 137 -90 214 -75 220 -39 b 230 29 238 97 245 165 b 259 166 274 167 288 169 b 303 171 313 195 293 193 b 278 191 263 189 248 188 b 254 248 259 308 257 369 b 256 422 250 482 215 524 b 178 568 103 538 60 520 b 41 511 52 490 70 498 z"},"S":{"x_min":0,"x_max":427,"ha":427,"o":"m -41 28 b -49 9 -18 9 -11 23 b 23 102 78 166 135 228 b 150 244 164 259 179 275 b 199 242 220 209 239 176 b 175 150 119 102 95 45 b 63 -28 77 -117 145 -164 b 205 -206 294 -194 341 -137 b 370 -102 377 -56 377 -12 b 377 36 364 85 348 129 b 343 142 337 154 332 167 b 373 165 413 149 443 115 b 452 105 478 121 467 134 b 429 181 374 198 318 194 b 294 243 265 290 236 337 b 260 365 282 394 300 427 b 336 491 363 591 302 650 b 245 704 145 702 97 639 b 40 564 72 466 110 392 b 127 359 146 328 165 297 b 154 286 143 275 133 264 b 66 192 -1 119 -41 28 z m 311 -111 b 297 -146 262 -166 225 -164 b 186 -161 151 -135 131 -102 b 76 -12 134 96 219 141 b 229 146 240 151 250 155 b 251 153 252 151 253 150 b 274 110 292 69 303 26 b 314 -15 326 -69 311 -111 z m 207 383 b 183 424 158 468 143 513 b 131 550 119 601 144 636 b 170 672 230 660 262 639 b 302 611 311 560 302 514 b 291 456 259 406 221 360 b 217 368 212 375 207 383 z"},"}":{"x_min":0,"x_max":471,"ha":471,"o":"m 414 221 b 337 314 350 445 322 556 b 308 610 287 668 244 707 b 225 724 199 735 174 727 b 154 721 135 703 133 682 b 131 664 159 670 162 684 b 167 712 203 676 210 666 b 223 647 234 625 241 604 b 259 557 264 505 268 456 b 276 377 282 296 317 226 b 297 217 279 203 267 187 b 232 141 234 81 229 26 b 224 -28 224 -89 199 -138 b 178 -180 127 -215 82 -185 b 69 -176 39 -195 54 -206 b 90 -233 141 -235 181 -216 b 231 -192 262 -142 280 -91 b 301 -33 304 29 310 91 b 312 115 319 192 357 168 b 385 151 439 191 414 221 z"},"Z":{"x_min":0,"x_max":389,"ha":389,"o":"m 415 117 b 356 96 296 82 235 72 b 226 71 217 70 208 69 b 210 74 213 80 215 85 b 237 139 256 194 269 250 b 277 281 283 313 288 345 b 303 347 319 350 335 352 b 351 354 362 380 341 377 b 324 375 308 373 291 370 b 301 448 301 526 289 603 b 285 631 278 660 259 682 b 240 703 212 704 186 700 b 152 694 118 686 85 677 b 53 669 16 651 -17 664 b -30 669 -54 647 -37 641 b 6 624 52 644 94 655 b 119 661 144 667 170 672 b 197 677 226 680 240 650 b 251 629 246 598 244 575 b 241 549 239 524 237 498 b 232 451 227 404 219 357 b 206 354 193 351 180 348 b 162 344 161 320 182 324 b 193 327 204 329 215 331 b 198 240 172 148 130 65 b 130 64 129 63 129 61 b 107 59 86 56 65 50 b 26 40 -34 8 -20 -42 b -5 -97 74 -72 108 -52 b 147 -29 175 6 196 45 b 213 47 230 49 247 52 b 305 61 362 75 417 95 b 423 97 432 102 430 110 b 429 117 421 120 415 117 z m 52 -22 b 36 -28 12 -25 21 -2 b 31 20 64 27 86 31 b 95 33 105 34 114 36 b 99 11 79 -12 52 -22 z"},"x":{"x_min":0,"x_max":253,"ha":253,"o":"m 251 120 b 240 82 229 39 200 11 b 183 -5 164 -6 145 8 b 131 19 121 35 113 52 b 99 81 90 111 83 143 b 112 191 146 236 182 278 b 197 295 169 302 158 290 b 128 256 101 220 76 182 b 70 223 68 265 61 306 b 54 347 -10 319 -11 287 b -14 230 -3 168 12 113 b 14 104 17 96 20 87 b 5 58 -9 29 -22 -1 b -30 -21 1 -20 7 -6 b 15 14 24 34 34 53 b 47 25 66 0 92 -18 b 131 -44 181 -37 216 -6 b 253 26 267 76 279 121 b 284 138 254 132 251 120 z"},")":{"x_min":0,"x_max":444,"ha":444,"o":"m 283 658 b 241 730 166 843 69 799 b 55 792 58 771 75 777 b 105 788 142 747 158 727 b 183 699 202 667 220 635 b 256 570 285 499 302 427 b 335 284 337 119 268 -15 b 236 -78 177 -137 100 -112 b 85 -107 67 -111 57 -124 b 47 -135 47 -149 60 -156 b 138 -202 235 -154 288 -92 b 344 -26 374 63 386 148 b 411 323 372 506 283 658 z"},"&":{"x_min":0,"x_max":543,"ha":543,"o":"m 484 148 b 467 181 431 195 395 192 b 358 190 322 171 297 143 b 296 161 295 178 295 195 b 305 201 316 207 327 212 b 339 218 353 232 352 247 b 350 261 335 269 322 267 b 312 266 303 264 293 263 b 292 327 291 391 291 455 b 298 458 306 460 313 462 b 338 469 372 480 398 472 b 429 462 412 404 409 380 b 405 354 447 363 451 383 b 458 412 466 448 457 478 b 448 505 418 512 393 513 b 359 514 325 508 291 498 b 291 538 291 579 291 620 b 291 635 262 626 262 612 b 262 571 262 529 262 488 b 246 482 232 476 218 469 b 164 444 110 408 76 358 b 43 310 34 239 93 207 b 123 190 162 189 196 190 b 198 190 200 190 202 190 b 198 187 195 184 192 181 b 162 150 133 112 125 69 b 117 27 128 -16 163 -43 b 193 -67 232 -76 271 -76 b 273 -76 275 -76 277 -76 b 278 -93 280 -109 281 -125 b 283 -142 315 -132 313 -117 b 312 -102 311 -88 309 -73 b 376 -61 435 -20 471 39 b 491 71 501 112 484 148 z m 148 264 b 99 291 149 359 175 383 b 200 407 230 427 262 442 b 261 381 262 320 263 258 b 249 257 236 255 222 255 b 199 254 169 252 148 264 z m 257 -29 b 203 -15 172 34 195 87 b 209 121 235 151 265 174 b 266 105 269 37 274 -32 b 268 -31 263 -30 257 -29 z m 405 6 b 377 -16 342 -30 306 -33 b 304 2 302 36 300 70 b 307 71 314 74 320 76 b 338 84 328 103 310 96 b 306 94 303 101 303 103 b 303 106 305 109 306 112 b 310 119 315 125 320 130 b 329 141 340 149 352 156 b 377 168 410 171 434 155 b 492 115 445 37 405 6 z"},"_":{"x_min":0,"x_max":414,"ha":414,"o":"m 338 5 b 253 2 167 -4 82 -14 b 69 -15 53 -23 50 -37 b 47 -51 60 -57 72 -57 b 156 -58 241 -54 325 -48 b 341 -47 360 -36 363 -20 b 367 -3 352 5 338 5 z"},"v":{"x_min":0,"x_max":341,"ha":341,"o":"m 359 135 b 324 131 290 135 260 149 b 264 172 267 195 268 219 b 271 259 272 311 247 345 b 223 378 175 370 151 341 b 125 311 125 268 138 233 b 152 190 185 154 226 131 b 223 116 219 101 215 86 b 210 70 205 53 198 37 b 191 23 181 -3 166 -9 b 136 -20 112 35 102 55 b 69 126 60 204 52 282 b 48 321 -24 297 -21 263 b -12 172 -3 66 55 -9 b 83 -44 132 -60 173 -37 b 210 -17 229 33 241 71 b 246 87 250 103 254 119 b 287 106 323 103 357 111 b 370 114 378 137 359 135 z m 236 201 b 235 189 233 177 232 165 b 218 174 205 186 194 200 b 172 226 157 263 162 298 b 164 313 172 335 189 340 b 209 346 222 326 228 310 b 240 275 239 236 236 201 z"},"O":{"x_min":0,"x_max":398,"ha":398,"o":"m 346 408 b 335 490 312 576 265 644 b 223 706 154 756 79 721 b 4 686 -20 599 -28 524 b -35 448 -25 369 11 301 b 23 279 37 259 52 240 b 44 189 43 136 54 86 b 61 52 75 16 101 -7 b 129 -32 167 -38 202 -30 b 269 -15 307 39 329 99 b 365 95 401 95 432 116 b 447 125 433 142 419 133 b 395 119 365 121 337 125 b 338 130 339 135 341 140 b 361 227 358 320 346 408 z m 11 454 b 6 519 13 595 47 652 b 64 680 94 705 129 703 b 163 701 193 675 214 650 b 262 597 287 525 302 456 b 318 382 322 305 315 229 b 312 197 307 164 298 132 b 273 137 248 145 224 155 b 187 170 151 191 121 218 b 126 266 138 314 150 361 b 154 379 137 389 121 388 b 103 387 84 375 79 357 b 72 334 67 312 61 289 b 32 339 15 397 11 454 z m 247 31 b 223 9 187 3 161 25 b 138 45 128 75 123 104 b 119 129 117 153 118 178 b 141 161 165 147 191 136 b 223 122 256 111 290 105 b 281 78 268 50 247 31 z"},"(":{"x_min":0,"x_max":444,"ha":444,"o":"m 393 -123 b 390 -110 373 -107 362 -111 b 296 -133 233 -92 198 -39 b 156 23 135 97 126 170 b 107 317 135 470 200 602 b 218 639 238 675 262 708 b 274 725 287 741 302 755 b 316 767 340 784 360 778 b 372 773 396 792 379 800 b 296 839 224 744 184 683 b 135 610 99 526 76 441 b 54 356 45 267 52 179 b 59 93 82 1 130 -72 b 183 -150 282 -205 374 -154 b 384 -148 397 -137 393 -123 z"},"C":{"x_min":0,"x_max":371,"ha":371,"o":"m 207 352 b 182 335 148 338 134 366 b 127 381 97 366 104 352 b 130 298 200 311 237 344 b 282 382 306 443 312 501 b 318 561 311 631 275 682 b 230 744 145 710 100 667 b 52 620 26 554 7 491 b -13 418 -24 342 -26 266 b -27 194 -21 120 1 51 b 20 -12 53 -77 110 -114 b 166 -149 244 -148 294 -102 b 351 -49 379 34 410 104 b 418 122 389 121 383 108 b 359 56 338 1 306 -47 b 275 -95 229 -132 172 -99 b 126 -74 101 -23 84 24 b 65 76 55 132 51 187 b 42 304 56 423 95 534 b 111 577 135 630 175 655 b 193 665 209 661 226 652 b 251 639 261 610 268 584 b 282 529 280 468 257 416 b 246 392 230 367 207 352 z"},"W":{"x_min":0,"x_max":696,"ha":696,"o":"m 513 -42 b 484 -62 458 -49 436 -26 b 411 0 399 36 392 71 b 384 111 379 151 374 191 b 366 276 364 359 344 442 b 338 467 301 455 295 435 b 294 433 294 432 293 431 b 285 348 278 264 265 182 b 260 145 253 109 242 73 b 237 57 231 41 224 25 b 216 9 207 -14 189 -21 b 157 -31 126 2 111 25 b 93 52 81 82 73 113 b 51 189 51 272 52 350 b 54 442 64 532 79 622 b 85 665 15 651 8 618 b -12 526 -21 432 -23 338 b -24 249 -23 153 7 68 b 30 1 91 -70 170 -58 b 208 -52 231 -24 247 8 b 266 45 278 85 287 126 b 290 142 294 159 296 176 b 297 168 298 160 298 152 b 305 76 316 -23 387 -67 b 452 -107 528 -81 569 -23 b 595 13 613 55 626 98 b 657 90 690 91 723 107 b 742 116 732 138 712 129 b 686 116 659 117 634 125 b 641 152 647 179 651 205 b 665 290 671 377 664 463 b 660 507 653 550 641 593 b 632 627 619 662 591 686 b 533 735 457 698 429 636 b 399 569 400 483 411 412 b 424 329 458 248 509 181 b 533 151 563 124 597 108 b 589 83 580 58 568 33 b 555 6 539 -24 513 -42 z m 538 199 b 498 251 469 313 453 376 b 437 439 433 506 443 570 b 448 603 456 640 480 664 b 506 689 540 687 567 664 b 593 640 603 604 612 572 b 621 537 626 501 630 465 b 637 390 634 314 624 239 b 620 205 614 171 605 139 b 579 154 556 177 538 199 z"},"A":{"x_min":0,"x_max":829,"ha":829,"o":"m 334 170 b 300 171 267 172 234 171 b 176 169 113 166 58 143 b 8 122 -26 80 -39 27 b -62 -71 -6 -178 95 -199 b 143 -209 194 -198 233 -168 b 273 -136 298 -89 315 -42 b 338 17 352 79 362 141 b 413 139 463 135 514 133 b 519 106 524 78 531 51 b 544 -4 560 -72 603 -114 b 620 -131 646 -146 671 -146 b 691 -146 711 -138 728 -128 b 798 -89 833 -2 856 70 b 861 87 866 103 870 119 b 874 136 844 131 841 118 b 824 47 797 -36 743 -87 b 655 -171 610 37 601 89 b 599 103 597 118 595 132 b 607 133 619 133 631 134 b 647 134 659 161 637 160 b 622 159 606 159 591 159 b 578 260 573 362 568 463 b 565 518 569 775 454 718 b 423 702 409 669 399 638 b 388 605 381 572 375 538 b 356 424 351 309 337 195 b 336 186 335 178 334 170 z m 303 17 b 289 -33 271 -86 238 -127 b 167 -213 39 -175 1 -78 b -20 -24 -15 48 26 92 b 68 137 143 140 201 143 b 244 145 287 145 330 143 b 323 100 314 58 303 17 z m 383 331 b 389 395 395 460 406 524 b 411 560 418 597 431 631 b 436 647 446 667 459 678 b 461 680 462 680 463 681 b 468 676 473 656 475 646 b 479 616 478 584 480 553 b 482 519 485 484 487 450 b 492 353 497 256 510 160 b 462 162 414 165 366 168 b 373 222 378 277 383 331 z"},"f":{"x_min":0,"x_max":251,"ha":251,"o":"m 260 134 b 206 113 152 89 99 64 b 98 63 96 62 94 61 b 115 99 135 137 151 177 b 174 233 201 298 189 359 b 185 381 175 402 154 412 b 128 424 98 410 77 394 b 29 356 5 286 -6 227 b -19 161 -18 92 -10 25 b -2 -36 11 -103 42 -156 b 70 -203 123 -254 180 -217 b 220 -191 224 -129 212 -87 b 195 -26 150 4 93 23 b 90 24 86 26 83 27 b 77 27 71 23 82 29 b 90 33 98 37 106 41 b 123 49 140 57 158 65 b 195 82 232 98 270 113 b 289 121 278 142 260 134 z m 79 -2 b 125 -18 161 -42 178 -90 b 185 -110 188 -132 185 -152 b 183 -162 181 -180 172 -186 b 162 -193 150 -184 142 -176 b 107 -143 94 -89 84 -44 b 81 -30 79 -16 76 -1 b 77 -2 78 -2 79 -2 z m 67 70 b 65 88 64 105 64 123 b 63 179 70 234 82 289 b 88 312 94 334 105 355 b 110 362 116 378 126 381 b 138 385 147 369 151 360 b 164 330 157 294 149 263 b 141 232 130 202 117 172 b 102 137 85 103 67 70 z"},"Q":{"x_min":0,"x_max":398,"ha":398,"o":"m 79 721 b 4 686 -20 599 -28 524 b -35 448 -25 369 11 301 b 23 279 37 259 52 240 b 44 189 43 136 54 86 b 61 52 75 16 101 -7 b 127 -30 161 -37 194 -32 b 203 -52 214 -72 228 -91 b 237 -101 262 -85 252 -72 b 240 -57 231 -41 223 -24 b 277 -3 310 46 329 99 b 365 95 401 95 432 116 b 447 125 433 142 419 133 b 395 119 365 121 337 125 b 338 130 339 135 341 140 b 361 227 358 320 347 408 b 335 490 312 576 265 644 b 223 706 154 756 79 721 z m 247 31 b 236 21 223 14 209 12 b 202 33 196 54 191 75 b 187 90 159 80 162 67 b 166 50 171 33 176 16 b 171 18 166 21 161 25 b 138 45 128 75 123 104 b 119 129 117 153 118 178 b 141 161 165 147 191 136 b 223 122 256 111 290 105 b 281 78 268 50 247 31 z m 315 229 b 312 197 307 164 298 132 b 273 137 248 145 224 155 b 187 170 151 191 121 218 b 126 266 138 314 150 361 b 154 379 137 389 121 388 b 103 387 84 375 79 357 b 72 334 67 312 61 289 b 32 339 15 397 11 454 b 6 519 13 595 47 652 b 64 680 94 705 129 703 b 163 701 193 675 214 650 b 262 597 287 525 302 456 b 318 382 322 305 315 229 z"},"w":{"x_min":0,"x_max":532,"ha":532,"o":"m 546 135 b 515 125 482 123 452 129 b 456 175 461 223 453 268 b 446 306 428 350 387 362 b 350 373 314 351 302 315 b 288 279 294 236 310 202 b 331 156 369 126 412 111 b 402 58 379 -28 329 7 b 299 28 286 71 278 104 b 268 145 265 187 263 228 b 262 259 218 250 199 229 b 199 228 198 227 197 226 b 197 226 197 225 196 225 b 195 223 194 220 193 218 b 187 203 186 185 184 170 b 179 148 174 126 167 105 b 160 83 151 61 139 41 b 127 23 111 3 90 20 b 60 45 57 99 55 134 b 53 184 58 234 65 284 b 72 326 1 312 -6 279 b -18 221 -21 157 -12 98 b -4 50 17 -13 74 -18 b 125 -24 160 19 179 61 b 187 78 193 95 199 113 b 202 95 206 78 212 61 b 226 17 251 -27 297 -42 b 340 -55 384 -39 411 -3 b 433 27 443 65 448 102 b 481 97 516 100 548 111 b 565 117 567 142 546 135 z m 417 141 b 417 141 417 141 417 141 b 398 150 380 162 365 179 b 344 203 331 233 328 265 b 325 292 330 350 371 336 b 404 324 417 283 421 252 b 427 215 423 178 417 141 z"},"-":{"x_min":0,"x_max":339,"ha":339,"o":"m 274 251 b 244 257 209 253 179 251 b 146 249 113 246 81 241 b 68 239 53 232 50 218 b 48 205 59 198 71 199 b 103 201 135 203 167 204 b 200 205 232 204 264 209 b 284 212 303 246 274 251 z"},"E":{"x_min":0,"x_max":385,"ha":385,"o":"m 177 446 b 164 438 156 419 168 407 b 180 394 203 402 215 410 b 249 435 278 468 298 505 b 316 541 331 586 319 626 b 308 660 277 685 240 685 b 200 685 160 664 129 641 b 64 592 8 519 -18 442 b -43 370 -30 279 37 233 b 37 233 38 233 38 233 b -18 143 -33 23 26 -65 b 52 -104 88 -124 134 -132 b 179 -139 221 -121 257 -95 b 334 -38 377 53 423 134 b 433 150 403 150 396 138 b 364 81 333 20 290 -30 b 252 -76 182 -135 122 -93 b 28 -26 41 115 96 207 b 153 191 221 196 265 231 b 290 252 316 293 301 327 b 283 368 225 364 189 354 b 139 339 95 306 60 264 b 24 295 8 344 9 393 b 11 461 51 521 93 570 b 117 597 144 623 177 641 b 207 657 260 673 272 627 b 281 592 262 550 244 520 b 227 491 204 466 177 446 z m 186 293 b 204 300 246 313 253 285 b 261 251 215 232 189 229 b 165 226 139 228 115 235 b 116 236 117 238 118 239 b 137 261 159 282 186 293 z"},"s":{"x_min":0,"x_max":211,"ha":211,"o":"m 226 144 b 196 133 167 118 140 99 b 120 123 96 145 79 167 b 57 194 35 227 36 264 b 36 281 42 299 62 300 b 82 302 96 283 102 268 b 109 253 139 267 133 282 b 114 332 59 340 19 309 b -33 271 -32 203 -4 150 b 16 110 51 81 82 49 b 80 47 78 45 77 43 b 59 22 41 -2 40 -31 b 39 -56 53 -81 78 -88 b 129 -104 188 -45 186 5 b 185 34 172 59 154 82 b 178 99 204 113 232 123 b 246 128 243 150 226 144 z m 118 -61 b 79 -83 65 -30 76 -3 b 81 9 89 21 98 32 b 103 26 108 19 113 13 b 126 -5 145 -46 118 -61 z"},">":{"x_min":0,"x_max":310,"ha":310,"o":"m 247 251 b 235 262 216 268 202 275 b 184 283 166 290 147 296 b 121 306 69 327 52 292 b 48 285 49 276 58 272 b 73 266 102 251 122 242 b 134 237 146 231 158 225 b 164 222 169 219 175 216 b 166 213 158 210 153 208 b 136 202 119 198 103 194 b 88 190 70 177 70 161 b 69 146 83 135 98 137 b 130 143 309 195 247 251 z"},"l":{"x_min":0,"x_max":269,"ha":269,"o":"m 266 130 b 250 82 233 34 204 -8 b 193 -24 175 -52 152 -45 b 129 -38 118 -19 108 2 b 89 44 80 90 74 136 b 161 196 222 289 246 392 b 259 449 260 508 242 565 b 228 612 197 670 138 659 b 79 648 44 584 24 533 b 0 471 -9 405 -13 339 b -18 272 -16 203 -8 136 b 0 74 10 2 50 -48 b 69 -73 100 -93 133 -91 b 163 -88 189 -70 208 -47 b 252 5 276 68 296 132 b 302 149 270 144 266 130 z m 65 319 b 66 374 74 428 85 482 b 94 527 106 573 132 611 b 134 614 136 617 139 620 b 140 621 147 625 145 625 b 156 628 168 620 176 614 b 195 598 206 569 213 547 b 227 499 227 448 217 400 b 198 306 147 221 71 163 b 66 215 63 267 65 319 z"},"8":{"x_min":0,"x_max":389,"ha":389,"o":"m 160 210 b 133 188 113 160 100 127 b 81 82 71 25 99 -18 b 124 -56 169 -81 214 -80 b 264 -80 308 -48 326 -2 b 348 52 342 112 311 161 b 304 173 296 184 287 195 b 287 195 288 196 288 196 b 299 251 307 306 308 362 b 310 409 309 462 288 505 b 267 548 224 572 176 565 b 127 559 84 519 65 475 b 19 370 87 280 160 210 z m 274 -11 b 263 -40 245 -57 212 -53 b 150 -46 107 9 116 71 b 122 116 142 163 177 194 b 178 193 180 191 181 190 b 221 154 263 117 276 63 b 282 39 282 12 274 -11 z m 199 531 b 265 530 276 442 279 392 b 281 334 275 277 264 220 b 244 242 222 262 201 283 b 163 323 130 372 125 429 b 121 474 144 532 199 531 z"},"\\":{"x_min":0,"x_max":459,"ha":459,"o":"m 408 -77 b 387 -12 357 51 332 116 b 307 181 283 247 260 313 b 240 373 220 434 196 492 b 184 522 171 551 156 578 b 141 605 123 639 99 658 b 84 669 45 657 50 634 b 58 603 76 574 88 546 b 101 518 113 490 124 461 b 146 400 166 338 186 277 b 208 211 230 146 255 82 b 279 17 302 -51 335 -113 b 354 -147 420 -113 408 -77 z"},"e":{"x_min":0,"x_max":241,"ha":241,"o":"m 237 123 b 228 94 215 67 200 42 b 185 18 166 -11 141 -23 b 81 -53 61 63 57 97 b 52 141 56 188 71 229 b 85 226 100 226 115 230 b 138 236 169 254 171 281 b 173 311 144 330 117 330 b 80 330 47 305 25 276 b -19 217 -28 124 -11 53 b -3 20 9 -17 36 -40 b 64 -63 101 -68 135 -54 b 205 -24 248 54 268 125 b 273 143 241 136 237 123 z m 87 264 b 93 274 99 285 108 291 b 122 301 148 289 139 269 b 129 249 103 248 82 254 b 84 258 85 261 87 264 z"},"b":{"x_min":0,"x_max":415,"ha":415,"o":"m 429 131 b 397 123 365 114 333 104 b 334 147 328 190 311 231 b 295 270 262 317 214 300 b 162 282 134 216 113 171 b 100 144 88 116 77 89 b 77 87 76 85 76 84 b 74 101 72 118 71 136 b 70 148 69 160 68 172 b 94 196 117 223 138 250 b 166 284 191 319 211 357 b 250 428 290 531 248 609 b 230 644 198 670 157 670 b 111 670 73 639 48 602 b -5 522 -15 416 -16 323 b -17 265 -14 207 -9 149 b -4 92 2 33 21 -21 b 31 -50 81 -22 81 1 b 81 3 81 6 81 8 b 107 87 133 170 180 239 b 190 253 206 277 225 278 b 252 279 257 247 260 227 b 268 183 268 138 263 93 b 263 89 262 84 262 79 b 223 64 186 47 150 28 b 107 5 64 -28 58 -79 b 53 -131 91 -168 141 -168 b 196 -169 247 -133 277 -90 b 311 -44 325 10 331 65 b 331 70 331 74 332 78 b 364 89 398 99 431 107 b 449 111 450 136 429 131 z m 63 265 b 60 347 60 430 79 510 b 87 544 97 585 119 613 b 147 648 189 625 207 592 b 246 524 210 433 177 369 b 157 332 133 297 107 265 b 93 249 79 234 65 219 b 64 234 63 250 63 265 z m 174 -108 b 159 -117 140 -120 124 -111 b 107 -102 94 -84 96 -64 b 101 -21 149 1 183 18 b 208 30 233 41 258 52 b 249 -10 229 -77 174 -108 z"},"%":{"x_min":0,"x_max":631,"ha":631,"o":"m 505 560 b 485 564 465 552 455 536 b 393 437 340 332 290 228 b 240 124 196 18 158 -91 b 148 -120 201 -113 210 -94 b 258 12 308 116 359 220 b 410 324 468 423 523 524 b 531 540 523 557 505 560 z m 272 353 b 264 412 213 468 150 459 b 111 454 29 401 55 355 b 55 328 59 301 76 279 b 95 254 127 242 157 241 b 218 240 280 287 272 353 z m 120 389 b 120 396 116 401 110 403 b 114 407 118 410 121 412 b 135 420 151 424 166 418 b 200 406 223 359 219 324 b 214 293 182 284 156 296 b 120 313 121 355 120 389 z m 494 198 b 454 202 405 180 389 143 b 379 136 373 127 373 116 b 373 58 399 -9 467 -10 b 524 -11 577 36 581 93 b 584 145 545 191 494 198 z m 529 85 b 524 60 501 30 473 48 b 445 66 445 105 441 135 b 440 140 438 145 435 148 b 448 161 464 168 486 160 b 518 149 535 117 529 85 z"},"m":{"x_min":0,"x_max":508,"ha":508,"o":"m 506 103 b 491 78 482 43 458 25 b 425 0 419 46 416 69 b 407 129 414 203 378 256 b 366 273 347 290 325 288 b 299 285 280 264 267 243 b 255 223 245 200 237 176 b 234 192 231 209 226 225 b 217 259 191 324 143 303 b 100 285 87 222 76 182 b 71 162 67 143 63 124 b 63 127 62 130 62 133 b 60 188 67 243 71 298 b 72 316 47 320 35 318 b 19 315 -3 303 -5 285 b -13 228 -17 170 -14 112 b -12 86 -7 59 -1 33 b 5 11 12 -21 34 -32 b 47 -38 67 -30 72 -17 b 78 -5 78 9 76 23 b 80 63 87 103 96 143 b 105 185 114 233 139 269 b 143 275 144 278 151 278 b 159 278 158 276 160 269 b 163 259 166 249 168 238 b 171 217 173 195 174 174 b 177 129 177 84 180 39 b 182 4 245 26 245 56 b 245 62 245 67 245 73 b 250 104 256 135 265 165 b 274 193 285 229 305 251 b 312 258 321 266 330 257 b 335 252 334 244 335 237 b 337 221 337 206 338 190 b 339 157 339 125 341 92 b 342 65 344 32 361 9 b 378 -16 405 -18 433 -13 b 492 -2 509 53 535 98 b 545 116 514 116 506 103 z"},"#":{"x_min":0,"x_max":568,"ha":568,"o":"m 448 554 b 413 483 383 409 357 334 b 338 333 320 333 301 332 b 308 354 316 376 324 398 b 343 451 367 502 387 554 b 393 570 376 580 363 581 b 347 581 328 572 321 558 b 284 485 255 407 230 328 b 187 325 144 320 102 314 b 86 312 74 286 96 288 b 137 294 179 298 221 300 b 216 285 212 270 207 255 b 159 250 111 244 64 236 b 46 233 45 208 66 211 b 110 219 155 225 200 229 b 185 178 172 125 161 73 b 156 45 151 18 146 -10 b 142 -38 137 -67 141 -95 b 145 -119 184 -109 191 -92 b 212 -40 218 19 230 73 b 242 127 255 181 270 234 b 288 235 306 235 324 236 b 323 231 321 227 320 222 b 303 166 287 109 274 51 b 261 -4 246 -63 248 -120 b 249 -132 263 -135 273 -134 b 286 -132 296 -124 300 -112 b 320 -58 330 0 344 56 b 358 112 374 168 391 223 b 392 227 394 231 395 235 b 424 235 453 233 481 231 b 496 230 515 254 495 256 b 465 258 434 260 403 261 b 408 276 414 290 419 305 b 443 305 467 304 492 303 b 505 303 521 328 502 329 b 478 331 453 332 429 333 b 455 404 484 473 514 543 b 534 587 464 585 448 554 z m 332 261 b 314 261 296 260 278 259 b 282 274 287 289 292 304 b 310 305 328 305 347 305 b 342 291 337 276 332 261 z"},",":{"x_min":0,"x_max":194,"ha":194,"o":"m 118 97 b 102 96 88 85 82 70 b 75 51 71 33 66 14 b 64 6 62 -2 59 -10 b 58 -15 56 -19 55 -24 b 55 -26 51 -34 54 -30 b 47 -38 49 -48 59 -50 b 84 -55 104 -26 114 -7 b 127 18 134 47 143 73 b 148 88 131 97 118 97 z"},"n":{"x_min":0,"x_max":345,"ha":345,"o":"m 343 115 b 333 89 323 30 287 27 b 256 24 248 79 244 101 b 236 137 234 173 226 209 b 220 238 212 280 186 299 b 130 341 92 255 79 213 b 71 188 64 163 59 137 b 55 191 57 245 61 299 b 62 315 40 319 28 317 b 14 315 -6 304 -8 288 b -18 225 -17 161 -9 99 b -5 69 0 40 9 11 b 16 -12 28 -44 56 -42 b 65 -41 78 -34 77 -24 b 75 -16 76 -7 75 1 b 76 2 76 3 76 4 b 74 78 87 155 113 225 b 119 243 127 263 140 277 b 156 295 157 260 158 250 b 162 214 163 177 166 140 b 169 108 171 68 189 40 b 206 14 233 -1 264 -2 b 333 -6 353 66 372 117 b 377 133 347 128 343 115 z"},"h":{"x_min":0,"x_max":391,"ha":391,"o":"m 386 102 b 375 65 362 27 342 -6 b 336 -15 324 -34 310 -31 b 301 -29 294 -9 290 0 b 278 31 278 69 273 102 b 266 136 262 174 247 207 b 237 230 217 261 188 256 b 161 252 143 226 129 204 b 107 169 89 130 75 89 b 74 105 72 120 71 136 b 70 148 69 160 68 172 b 94 196 117 223 138 250 b 166 284 191 319 211 357 b 250 428 290 531 248 609 b 230 644 198 670 157 670 b 111 670 73 639 48 602 b -5 522 -15 416 -16 323 b -17 265 -14 207 -9 149 b -4 92 2 33 21 -21 b 31 -50 81 -22 81 1 b 81 7 81 12 81 18 b 91 53 103 87 117 121 b 131 153 144 185 166 212 b 171 220 176 228 186 228 b 193 231 196 228 196 219 b 197 215 198 210 199 206 b 202 188 203 170 204 151 b 205 114 208 76 212 39 b 215 10 215 -31 238 -52 b 262 -73 297 -72 323 -59 b 380 -31 402 48 418 103 b 423 122 390 116 386 102 z m 63 265 b 60 347 60 430 79 510 b 87 544 97 585 119 613 b 147 648 189 625 207 592 b 246 524 210 433 177 369 b 157 332 133 297 107 265 b 93 249 79 234 65 219 b 64 234 63 250 63 265 z"},"z":{"x_min":0,"x_max":347,"ha":347,"o":"m 351 100 b 328 84 305 69 280 55 b 271 81 256 105 235 122 b 216 138 192 148 167 151 b 176 163 184 176 192 189 b 209 216 229 254 227 288 b 225 322 197 334 167 330 b 124 324 81 318 38 312 b 22 309 10 283 32 286 b 63 290 94 294 125 297 b 138 299 159 305 171 303 b 193 297 176 273 170 262 b 143 211 105 169 70 123 b 61 111 56 96 70 86 b 85 75 105 83 118 91 b 142 107 177 81 192 64 b 204 51 211 35 216 19 b 175 -3 134 -24 95 -49 b 41 -81 -88 -156 -39 -236 b 8 -312 115 -291 177 -249 b 254 -198 292 -98 291 -8 b 291 5 290 18 287 31 b 315 47 343 64 370 83 b 388 96 367 111 351 100 z m 152 -219 b 127 -239 95 -250 63 -249 b 29 -248 -14 -232 -15 -192 b -16 -156 26 -126 52 -107 b 82 -85 115 -65 148 -46 b 172 -32 197 -19 221 -6 b 222 -14 223 -22 223 -30 b 226 -95 204 -175 152 -219 z"},"B":{"x_min":0,"x_max":609,"ha":609,"o":"m 18 240 b -8 224 -22 193 -29 165 b -60 38 15 -119 144 -156 b 211 -175 282 -157 339 -118 b 391 -82 428 -30 453 28 b 475 24 497 23 518 26 b 574 35 621 68 650 116 b 659 133 630 133 623 121 b 594 71 540 42 482 49 b 475 50 469 51 463 52 b 490 125 499 212 477 287 b 460 343 417 382 364 394 b 405 446 440 503 457 568 b 466 603 469 650 441 678 b 416 702 377 700 346 693 b 267 675 198 616 148 555 b 121 522 97 485 79 447 b 60 410 47 367 60 326 b 67 307 85 291 98 275 b 110 259 122 243 132 225 b 124 229 116 233 108 237 b 79 250 46 258 18 240 z m 156 -103 b 102 -83 59 -40 33 10 b 3 65 -18 146 17 204 b 38 240 76 221 105 206 b 122 198 139 188 155 179 b 156 177 156 176 157 174 b 157 170 157 166 158 162 b 159 134 162 107 167 79 b 172 53 177 24 194 3 b 205 -12 233 5 236 19 b 243 45 238 74 236 102 b 236 111 235 120 234 130 b 272 106 310 82 351 63 b 363 57 377 51 390 46 b 353 -48 266 -142 156 -103 z m 99 373 b 101 411 121 447 141 479 b 177 538 224 593 284 629 b 311 646 348 664 381 659 b 420 652 417 610 408 581 b 385 504 328 438 275 379 b 259 361 269 334 296 337 b 435 353 425 160 399 72 b 361 87 325 108 291 128 b 271 140 252 153 232 165 b 232 171 232 176 232 182 b 230 237 232 291 235 346 b 236 363 213 367 201 365 b 186 362 165 351 163 334 b 159 307 157 279 156 251 b 151 259 145 268 139 276 b 130 289 118 301 111 316 b 103 334 97 353 99 373 z"},"K":{"x_min":0,"x_max":839,"ha":839,"o":"m 390 676 b 374 673 351 661 348 642 b 335 541 329 438 329 336 b 312 329 294 323 276 318 b 260 336 242 353 223 369 b 173 411 107 447 40 437 b -13 429 -67 373 -25 321 b -6 300 21 289 48 281 b 82 272 117 267 152 266 b 192 265 231 271 269 281 b 275 274 281 267 287 260 b 302 241 317 221 331 200 b 333 140 338 79 348 19 b 354 -13 361 -44 370 -75 b 379 -106 390 -140 414 -163 b 429 -177 465 -160 463 -139 b 459 -108 450 -78 443 -48 b 437 -16 431 16 426 48 b 425 55 424 63 423 71 b 456 30 493 -7 538 -35 b 567 -54 601 -69 637 -72 b 669 -75 702 -67 732 -56 b 795 -34 846 11 879 68 b 889 85 859 85 851 72 b 819 17 760 -33 692 -35 b 621 -38 557 6 508 53 b 475 84 445 119 416 155 b 414 185 413 216 412 246 b 411 277 411 307 411 338 b 534 405 642 516 646 661 b 646 677 618 667 617 654 b 609 531 514 437 412 377 b 413 470 419 562 426 655 b 428 673 402 678 390 676 z m 177 300 b 143 297 109 298 75 305 b 47 310 12 320 -4 346 b -26 382 10 411 44 414 b 78 417 112 406 142 390 b 180 370 213 341 243 310 b 221 305 199 302 177 300 z m 329 300 b 329 286 329 271 329 257 b 320 268 311 279 301 290 b 310 293 320 296 329 300 z"},"R":{"x_min":0,"x_max":583,"ha":583,"o":"m 383 29 b 301 67 269 159 220 229 b 219 230 219 230 219 231 b 227 234 234 238 242 241 b 319 282 381 350 422 427 b 442 463 455 503 459 544 b 464 584 463 627 438 660 b 415 690 378 694 346 677 b 310 659 286 624 268 588 b 222 493 206 384 193 280 b 190 278 187 277 184 276 b 183 278 181 280 179 282 b 178 409 188 535 198 661 b 199 678 176 682 165 680 b 150 677 131 666 129 650 b 113 554 107 456 106 358 b 87 375 67 390 44 396 b -43 420 -64 293 -7 248 b 26 223 67 211 108 210 b 110 162 113 113 118 65 b 122 32 126 -1 131 -34 b 136 -65 140 -101 154 -129 b 163 -148 199 -134 201 -116 b 204 -91 202 -66 200 -41 b 201 33 205 107 212 180 b 225 155 236 130 248 104 b 265 67 288 35 323 14 b 354 -4 394 -11 430 -12 b 506 -13 578 29 623 89 b 635 106 610 112 600 100 b 551 35 462 -8 383 29 z m 186 220 b 185 207 184 193 183 180 b 182 193 181 206 181 219 b 183 219 185 219 186 220 z m 257 473 b 267 513 280 553 299 590 b 314 619 346 673 386 661 b 429 649 420 590 413 557 b 405 520 388 485 370 451 b 337 391 289 332 229 297 b 227 296 226 295 224 294 b 232 354 242 415 257 473 z m -6 334 b -6 343 -5 353 0 361 b 8 376 22 376 36 370 b 62 359 85 338 106 317 b 106 299 107 281 107 264 b 77 265 47 272 21 290 b 5 300 -5 314 -6 334 z"},"T":{"x_min":0,"x_max":538,"ha":538,"o":"m 679 647 b 692 711 634 755 576 761 b 510 768 441 747 379 726 b 355 718 332 709 308 701 b 299 705 287 705 279 703 b 265 699 252 690 247 678 b 225 670 204 663 182 657 b 147 646 112 638 75 636 b 48 635 -11 636 -15 673 b -17 689 -45 680 -44 666 b -37 605 56 609 98 615 b 148 622 196 637 243 653 b 236 493 242 331 257 172 b 263 98 269 13 309 -51 b 345 -107 419 -128 471 -82 b 499 -58 517 -22 533 11 b 551 49 565 88 575 129 b 580 146 549 140 545 127 b 529 66 504 -3 464 -53 b 456 -63 444 -76 430 -78 b 416 -79 402 -70 393 -60 b 372 -38 361 -4 354 25 b 337 92 335 163 331 231 b 326 302 323 373 322 444 b 319 523 320 602 319 681 b 377 703 436 725 498 734 b 533 740 573 742 606 725 b 635 710 657 679 650 646 b 647 628 677 633 679 647 z"},"P":{"x_min":0,"x_max":390,"ha":390,"o":"m 96 182 b 123 171 150 176 174 189 b 180 188 186 186 192 185 b 219 179 244 169 269 159 b 314 142 360 124 409 121 b 417 120 426 124 430 131 b 433 138 431 146 423 147 b 369 151 320 173 270 191 b 250 199 229 206 208 212 b 216 219 224 226 231 233 b 264 267 287 310 305 354 b 322 400 332 449 331 497 b 330 541 323 592 302 631 b 284 664 252 705 210 682 b 174 662 155 611 141 575 b 103 479 83 374 70 272 b 65 235 61 199 58 162 b 56 199 55 236 54 273 b 52 403 63 532 72 661 b 74 678 51 682 40 680 b 25 677 6 666 3 650 b -18 521 -21 388 -18 257 b -17 193 -13 129 -7 65 b -4 32 1 -1 6 -34 b 11 -65 15 -101 29 -129 b 38 -148 74 -134 76 -116 b 78 -103 78 -89 77 -75 b 80 11 83 98 91 185 b 92 184 94 183 96 182 z m 168 567 b 176 588 185 608 196 627 b 201 635 205 644 211 651 b 221 663 230 665 243 655 b 257 643 261 620 266 603 b 271 583 273 561 274 540 b 276 500 272 460 263 421 b 252 377 235 335 210 298 b 191 269 160 227 121 228 b 121 228 121 228 121 228 b 111 227 101 222 94 215 b 101 292 113 369 132 445 b 142 486 153 528 168 567 z"},"|":{"x_min":0,"x_max":184,"ha":184,"o":"m 132 303 b 133 365 134 428 134 490 b 134 521 133 552 130 583 b 127 613 126 646 113 674 b 104 694 70 678 66 662 b 61 631 63 599 63 569 b 62 537 61 506 61 474 b 59 410 56 346 54 282 b 51 155 47 28 53 -99 b 53 -119 79 -123 95 -119 b 114 -114 131 -98 132 -78 b 134 49 131 176 132 303 z"},"t":{"x_min":0,"x_max":270,"ha":270,"o":"m 706 581 b 624 599 534 592 452 581 b 383 572 315 558 248 543 b 246 550 244 557 242 565 b 227 612 197 670 138 659 b 79 648 43 584 24 533 b 18 519 14 505 10 490 b -17 485 -45 481 -72 477 b -157 466 -283 452 -325 550 b -331 563 -359 550 -353 536 b -324 467 -246 445 -176 445 b -117 445 -56 454 3 465 b -6 424 -11 382 -14 339 b -19 272 -16 203 -8 136 b 0 74 10 2 50 -48 b 69 -73 100 -93 133 -91 b 163 -88 189 -70 208 -47 b 251 5 276 68 296 132 b 301 149 270 144 265 130 b 250 82 232 34 204 -8 b 192 -24 174 -52 151 -45 b 128 -38 117 -19 108 2 b 89 44 80 90 74 136 b 161 196 222 289 246 392 b 255 434 258 478 252 520 b 366 546 481 567 598 565 b 643 564 693 562 734 540 b 770 520 797 478 784 436 b 778 419 811 424 815 438 b 838 512 769 566 706 581 z m 132 611 b 134 614 136 617 138 620 b 139 621 147 625 145 625 b 156 628 168 620 175 614 b 194 598 206 569 213 547 b 214 543 215 539 216 535 b 174 526 132 516 90 507 b 98 543 110 580 132 611 z m 217 400 b 197 306 147 221 71 163 b 66 215 63 267 64 319 b 66 374 73 428 84 482 b 84 482 84 482 84 482 b 130 492 175 503 220 513 b 226 475 224 436 217 400 z"},"M":{"x_min":0,"x_max":703,"ha":703,"o":"m 318 521 b 306 596 263 697 172 694 b 83 691 25 601 -2 526 b -31 445 -41 352 -20 267 b 3 175 68 107 131 40 b 139 16 149 -7 171 -19 b 185 -26 218 -12 213 7 b 195 81 185 158 181 234 b 177 313 185 392 181 471 b 180 506 122 485 117 461 b 99 378 99 290 105 206 b 107 172 111 137 117 103 b 82 141 49 182 28 230 b -3 304 -4 388 13 466 b 28 538 62 633 137 662 b 236 700 255 563 259 498 b 266 393 258 286 255 181 b 255 163 280 160 293 163 b 311 168 326 182 327 200 b 327 202 327 204 327 206 b 341 273 363 339 388 403 b 400 434 413 465 427 496 b 433 511 439 526 446 541 b 449 547 453 556 457 564 b 458 555 457 545 456 538 b 456 519 454 500 452 481 b 449 449 447 416 445 384 b 441 316 437 248 440 180 b 443 121 444 55 487 9 b 522 -29 579 -51 629 -30 b 682 -8 721 55 743 106 b 751 124 722 124 716 111 b 700 74 677 40 647 13 b 631 -1 615 -10 594 -2 b 576 5 560 18 549 33 b 528 65 524 108 521 145 b 517 192 516 239 516 286 b 515 376 522 469 501 557 b 498 571 492 593 479 600 b 467 608 453 599 445 590 b 418 561 406 519 391 483 b 369 432 348 381 331 328 b 331 393 328 457 318 521 z"},"g":{"x_min":0,"x_max":335,"ha":335,"o":"m 337 128 b 317 101 294 78 269 57 b 267 137 260 218 253 298 b 250 340 172 314 175 277 b 175 272 175 267 176 261 b 166 281 153 300 134 310 b 73 342 16 272 -3 221 b -24 160 -25 88 0 28 b 11 -1 30 -30 61 -40 b 86 -49 113 -37 132 -19 b 155 3 167 35 176 65 b 180 81 184 96 188 112 b 191 75 194 39 195 2 b 178 -9 161 -21 144 -33 b 84 -77 -11 -149 9 -235 b 30 -329 146 -306 198 -254 b 229 -223 244 -179 253 -137 b 263 -94 267 -49 268 -5 b 269 6 269 16 269 26 b 304 53 337 83 361 121 b 371 135 344 138 337 128 z m 153 85 b 146 60 139 33 125 10 b 117 -2 103 -19 90 -2 b 82 9 77 23 72 36 b 63 64 59 94 57 123 b 56 151 60 179 67 206 b 73 227 82 262 99 277 b 122 297 147 248 154 232 b 163 211 169 190 175 168 b 168 141 160 113 153 85 z m 181 -176 b 174 -211 163 -260 124 -271 b 82 -284 42 -258 38 -214 b 35 -172 63 -137 91 -109 b 119 -81 150 -58 182 -35 b 186 -32 191 -29 195 -26 b 195 -76 191 -127 181 -176 z"},"j":{"x_min":0,"x_max":143,"ha":143,"o":"m 145 128 b 125 101 102 78 77 57 b 76 137 68 218 62 298 b 58 340 -19 314 -17 277 b -12 186 1 94 3 2 b -14 -9 -31 -21 -48 -33 b -108 -77 -203 -149 -183 -235 b -162 -329 -46 -306 6 -254 b 38 -223 52 -179 61 -137 b 71 -94 75 -49 77 -5 b 77 6 77 16 77 26 b 112 53 145 83 169 121 b 179 135 152 138 145 128 z m -11 -176 b -18 -211 -29 -260 -68 -271 b -110 -284 -150 -258 -154 -214 b -157 -172 -129 -137 -101 -109 b -73 -81 -42 -58 -10 -35 b -6 -32 -1 -29 3 -26 b 3 -76 0 -127 -11 -176 z m 12 354 b 20 351 36 359 36 368 b 39 370 41 372 43 375 b 50 391 102 475 54 470 b 36 468 22 453 12 436 b 10 440 8 443 6 447 b -4 462 -12 476 -32 476 b -45 476 -55 467 -60 456 b -75 415 -21 369 12 354 z"},"i":{"x_min":0,"x_max":175,"ha":175,"o":"m 171 117 b 160 81 150 44 128 13 b 118 -1 103 -19 88 -1 b 78 11 75 29 72 45 b 57 128 67 211 71 294 b 72 311 48 316 36 314 b 19 311 -1 299 -4 281 b -14 226 -17 167 -13 111 b -10 63 -4 5 34 -29 b 69 -60 113 -42 141 -11 b 174 24 188 74 201 119 b 205 136 175 131 171 117 z m 20 361 b 21 359 22 358 23 358 b 24 358 24 358 24 357 b 33 350 55 361 52 372 b 60 393 69 414 78 436 b 82 447 92 469 80 479 b 74 483 67 482 61 479 b 45 473 35 459 28 443 b 18 468 3 486 -17 462 b -28 448 -24 426 -19 411 b -11 390 4 374 20 361 z"},"y":{"x_min":0,"x_max":323,"ha":323,"o":"m 326 128 b 306 101 283 78 257 57 b 256 137 248 218 242 298 b 239 340 161 314 163 277 b 164 267 164 257 165 247 b 162 212 156 178 149 143 b 145 122 140 100 132 79 b 127 62 111 21 88 27 b 71 32 62 60 58 75 b 52 96 49 118 47 139 b 43 184 47 228 50 273 b 52 303 -7 287 -11 263 b -20 189 -36 -23 90 -1 b 140 8 159 67 170 108 b 172 115 174 123 175 130 b 179 87 182 45 183 2 b 166 -9 149 -21 132 -33 b 72 -77 -22 -149 -3 -235 b 18 -329 134 -306 187 -254 b 218 -223 232 -179 242 -137 b 252 -94 256 -49 257 -5 b 257 6 257 16 257 26 b 293 53 325 83 350 121 b 359 135 333 138 326 128 z m 170 -176 b 162 -211 151 -260 112 -271 b 70 -284 31 -258 27 -214 b 23 -172 51 -137 79 -109 b 107 -81 139 -58 171 -35 b 175 -32 179 -29 184 -26 b 184 -76 180 -127 170 -176 z"},"@":{"x_min":0,"x_max":584,"ha":584,"o":"m 516 85 b 500 88 482 78 474 64 b 426 -18 333 -54 244 -15 b 145 29 108 143 118 244 b 127 337 167 435 242 493 b 278 520 325 541 369 522 b 412 505 439 464 451 421 b 466 367 464 301 447 249 b 442 236 436 224 428 213 b 426 210 423 206 420 204 b 419 204 417 205 416 207 b 400 234 393 259 394 290 b 395 292 396 294 395 296 b 389 345 337 360 295 347 b 251 333 219 295 204 253 b 190 211 203 157 257 164 b 283 167 303 184 321 201 b 326 206 331 210 336 215 b 347 172 374 135 427 151 b 495 173 520 256 526 319 b 531 385 526 456 487 511 b 450 563 392 591 328 583 b 196 565 103 441 68 320 b 31 196 45 37 161 -42 b 283 -125 467 -81 531 55 b 538 69 532 82 516 85 z m 333 288 b 317 260 299 232 274 210 b 245 184 237 232 241 252 b 245 281 264 306 290 318 b 312 329 342 326 357 307 b 347 304 338 297 333 288 z"},".":{"x_min":0,"x_max":156,"ha":156,"o":"m 105 34 b 103 45 92 49 82 47 b 70 45 60 38 56 26 b 51 9 49 -13 50 -31 b 51 -43 65 -46 74 -45 b 86 -43 98 -35 101 -23 b 105 -6 108 16 105 34 z"},"p":{"x_min":0,"x_max":375,"ha":375,"o":"m 386 120 b 354 108 321 107 287 107 b 301 179 289 259 244 314 b 217 346 175 336 150 306 b 118 268 105 214 93 166 b 83 121 75 75 69 29 b 64 119 63 210 63 301 b 63 320 37 324 24 320 b 6 315 -10 301 -11 281 b -14 186 -10 91 -4 -4 b -1 -50 3 -97 9 -143 b 15 -189 20 -238 39 -280 b 47 -299 82 -285 84 -268 b 87 -240 86 -211 84 -182 b 86 -101 93 -21 105 60 b 111 101 118 143 128 183 b 138 221 149 264 175 295 b 210 338 232 263 236 236 b 242 199 240 158 233 121 b 232 117 231 112 231 108 b 228 108 226 108 224 108 b 185 106 140 98 116 65 b 91 31 99 -18 142 -30 b 193 -43 240 -5 263 37 b 271 52 277 67 282 84 b 320 84 358 86 395 101 b 413 108 403 127 386 120 z m 190 24 b 160 0 117 39 152 67 b 171 82 198 85 225 85 b 218 62 207 38 190 24 z"},"X":{"x_min":0,"x_max":452,"ha":452,"o":"m 306 636 b 324 649 303 664 288 653 b 241 619 209 567 182 517 b 176 506 171 496 165 485 b 153 548 141 610 124 671 b 119 689 90 686 78 682 b 63 676 41 660 45 642 b 66 543 85 444 106 345 b 87 290 70 234 53 178 b 44 148 34 117 22 88 b 15 72 8 57 1 43 b -6 31 -15 9 -30 8 b -45 6 -56 -18 -36 -16 b 18 -11 41 63 58 106 b 81 167 98 231 118 293 b 126 260 134 228 143 196 b 171 92 235 -121 383 -49 b 453 -14 466 63 492 128 b 499 146 471 145 466 132 b 445 80 434 8 381 -23 b 327 -54 287 28 271 66 b 222 185 199 314 174 440 b 181 454 187 467 194 481 b 222 536 255 599 306 636 z"},"*":{"x_min":0,"x_max":302,"ha":302,"o":"m 243 411 b 221 413 197 415 174 415 b 190 435 207 453 226 469 b 242 482 223 495 210 484 b 194 471 179 456 165 441 b 165 460 165 480 165 500 b 166 517 134 507 133 491 b 133 477 132 463 132 448 b 121 462 109 476 96 489 b 86 498 61 482 72 471 b 90 453 106 434 122 414 b 100 412 79 408 59 400 b 45 395 48 374 65 380 b 84 387 105 390 126 391 b 111 370 96 347 82 324 b 72 309 100 309 108 320 b 117 334 126 349 135 363 b 137 343 139 324 143 306 b 146 289 174 299 173 314 b 172 329 171 344 170 360 b 185 344 200 329 216 315 b 226 305 252 323 240 333 b 220 351 200 370 182 391 b 198 389 214 388 230 386 b 245 385 263 409 243 411 z"},"Y":{"x_min":0,"x_max":387,"ha":387,"o":"m -27 458 b -25 400 -20 326 18 279 b 54 235 113 236 149 279 b 185 323 199 379 210 434 b 215 462 220 490 224 518 b 233 447 241 376 245 305 b 247 280 248 255 250 230 b 221 228 194 221 168 209 b 74 166 -1 61 0 -45 b 0 -91 20 -139 67 -154 b 116 -170 168 -148 208 -117 b 300 -46 319 81 324 191 b 358 175 385 147 399 112 b 404 98 432 112 427 126 b 409 176 370 208 325 222 b 326 293 322 365 316 437 b 309 514 300 592 285 669 b 277 710 203 685 208 648 b 208 642 209 636 210 629 b 203 570 193 510 182 451 b 176 418 169 386 158 355 b 153 341 147 327 139 314 b 133 303 118 282 104 283 b 79 284 64 328 58 346 b 47 379 43 414 41 449 b 37 518 45 587 53 656 b 58 696 -9 683 -13 652 b -21 587 -29 523 -27 458 z m 228 -12 b 217 -51 197 -98 160 -119 b 118 -144 63 -135 42 -89 b 23 -48 32 0 47 41 b 63 86 92 127 130 157 b 164 185 206 204 250 206 b 252 132 248 58 228 -12 z"},"c":{"x_min":0,"x_max":268,"ha":268,"o":"m 265 118 b 253 86 237 55 218 26 b 202 2 170 -48 135 -41 b 78 -31 63 31 59 80 b 54 140 67 203 95 257 b 105 276 141 331 158 289 b 172 256 164 210 157 176 b 153 159 184 164 187 178 b 195 216 202 261 192 298 b 182 335 147 343 114 332 b 33 308 -7 216 -16 139 b -25 68 -18 -44 64 -69 b 121 -86 175 -66 214 -23 b 250 18 276 69 294 119 b 300 136 270 130 265 118 z"},"!":{"x_min":0,"x_max":190,"ha":190,"o":"m 134 51 b 139 97 133 145 131 191 b 130 238 130 285 131 332 b 133 428 139 524 136 621 b 136 640 110 644 95 640 b 76 635 61 620 59 600 b 52 504 52 407 50 310 b 50 265 50 219 52 174 b 54 128 57 77 77 35 b 88 13 132 29 134 51 z m 133 -31 b 126 -12 92 -28 90 -43 b 85 -67 87 -93 86 -117 b 86 -131 105 -133 115 -131 b 127 -127 139 -117 140 -103 b 140 -79 141 -53 133 -31 z"},"/":{"x_min":0,"x_max":434,"ha":434,"o":"m 363 565 b 343 568 320 556 311 539 b 256 438 211 331 167 225 b 125 121 81 16 51 -92 b 43 -119 85 -111 95 -99 b 134 -57 151 3 173 56 b 195 108 216 161 239 213 b 285 319 336 422 381 528 b 388 544 382 561 363 565 z"},"[":{"x_min":0,"x_max":343,"ha":343,"o":"m 293 -140 b 291 -121 269 -119 254 -122 b 232 -126 208 -107 195 -91 b 177 -69 168 -39 161 -11 b 145 54 138 121 134 188 b 125 329 123 472 131 613 b 132 648 132 685 140 719 b 146 743 167 782 192 750 b 200 740 228 755 220 767 b 205 788 179 792 154 787 b 121 781 98 753 87 722 b 75 686 70 644 66 606 b 61 563 58 519 55 475 b 49 387 49 298 52 209 b 55 125 61 39 82 -43 b 92 -83 106 -122 137 -150 b 169 -180 217 -192 259 -178 b 274 -173 295 -160 293 -140 z"},"6":{"x_min":0,"x_max":381,"ha":381,"o":"m 161 -72 b 236 -108 355 -52 327 42 b 313 87 272 113 227 116 b 196 117 167 108 141 93 b 134 127 129 162 128 196 b 126 269 137 345 161 414 b 173 445 190 484 220 503 b 265 532 287 472 295 438 b 299 422 329 432 326 446 b 318 488 299 533 254 545 b 208 557 161 518 135 485 b 73 406 51 292 50 193 b 49 140 57 86 76 36 b 92 -8 117 -51 161 -72 z m 292 37 b 305 7 294 -32 261 -44 b 232 -56 196 -33 179 -9 b 163 13 153 41 147 68 b 166 82 188 90 213 90 b 247 89 280 70 292 37 z"},"r":{"x_min":0,"x_max":307,"ha":307,"o":"m 302 117 b 292 80 282 44 269 8 b 262 -9 255 -26 245 -42 b 243 -46 232 -64 226 -64 b 224 -64 219 -54 218 -52 b 210 -38 209 -19 207 -3 b 205 16 204 35 204 53 b 203 94 206 135 207 176 b 208 195 180 198 167 195 b 151 190 138 180 134 166 b 115 146 93 122 71 128 b 101 165 125 218 115 264 b 110 287 91 302 68 303 b 37 304 13 286 -3 261 b -32 216 -34 134 19 105 b 44 91 74 96 98 108 b 110 114 121 122 130 131 b 128 88 127 43 136 1 b 143 -35 162 -94 207 -94 b 247 -94 273 -54 287 -22 b 307 23 320 71 332 118 b 336 136 306 130 302 117 z m 51 142 b 32 167 33 207 43 235 b 47 247 57 276 74 269 b 90 262 87 232 85 219 b 80 191 68 165 51 142 z"},"2":{"x_min":0,"x_max":455,"ha":455,"o":"m 99 -91 b 156 -101 210 -60 243 -17 b 294 -47 344 -79 399 -45 b 416 -34 396 -21 382 -30 b 358 -45 324 -29 301 -18 b 287 -11 273 -2 259 6 b 317 93 343 198 347 301 b 349 359 342 418 317 471 b 299 511 263 552 217 556 b 163 560 115 516 96 469 b 81 434 70 352 119 337 b 131 333 155 353 138 359 b 121 366 118 390 117 406 b 115 428 119 450 127 469 b 143 504 185 547 226 523 b 258 505 268 454 273 421 b 280 378 281 334 277 290 b 270 204 248 118 204 43 b 203 40 201 37 199 34 b 159 46 115 45 80 17 b 63 3 49 -20 50 -43 b 51 -69 75 -86 99 -91 z m 146 17 b 159 17 171 15 184 11 b 170 -8 153 -25 132 -33 b 119 -38 96 -38 94 -19 b 91 6 128 16 146 17 z"},"{":{"x_min":0,"x_max":470,"ha":470,"o":"m 393 -186 b 350 -216 297 -172 276 -134 b 249 -83 248 -22 243 35 b 238 89 241 152 207 197 b 192 217 172 229 150 233 b 187 304 194 386 202 467 b 206 515 212 564 227 610 b 235 632 245 654 259 673 b 265 681 272 690 282 693 b 293 696 306 691 309 679 b 312 663 340 673 339 687 b 337 706 320 725 300 729 b 274 734 247 717 228 700 b 186 659 163 601 150 546 b 122 436 136 302 59 210 b 49 198 45 180 60 170 b 76 160 95 167 110 176 b 100 170 110 174 119 170 b 128 166 136 159 142 150 b 155 130 158 104 160 80 b 166 19 169 -41 189 -100 b 205 -148 234 -195 282 -217 b 323 -236 376 -232 412 -204 b 432 -190 409 -175 393 -186 z"},"9":{"x_min":0,"x_max":492,"ha":492,"o":"m 162 257 b 211 269 246 311 274 351 b 290 374 303 399 315 424 b 321 436 327 448 332 459 b 332 460 332 460 332 460 b 345 437 350 410 354 384 b 360 352 363 320 364 288 b 366 227 358 166 340 108 b 329 69 298 -5 247 0 b 179 8 158 84 167 142 b 171 164 134 157 130 140 b 118 87 120 33 155 -11 b 190 -57 244 -72 298 -50 b 413 -2 441 154 442 263 b 443 324 433 388 410 444 b 401 468 384 497 362 510 b 350 517 336 517 324 512 b 256 580 137 527 88 461 b 59 422 40 368 55 319 b 69 273 114 246 162 257 z m 143 481 b 186 516 256 532 300 491 b 299 489 298 488 297 486 b 286 463 280 437 270 413 b 259 387 248 361 231 339 b 214 317 193 294 166 285 b 138 276 112 290 97 314 b 63 369 98 444 143 481 z"}," ":{"x_min":0,"x_max":355,"ha":355,"o":""},"I":{"x_min":0,"x_max":268,"ha":268,"o":"m 201 674 b 206 667 224 678 219 686 b 199 715 154 706 125 700 b 76 692 24 675 -24 697 b -33 701 -49 687 -38 682 b -8 667 25 667 57 671 b 50 664 45 655 44 644 b 37 467 35 289 46 113 b 51 43 58 -47 114 -97 b 163 -142 225 -114 254 -62 b 284 -9 297 55 308 115 b 311 133 281 126 277 113 b 266 65 257 16 238 -30 b 230 -48 220 -72 203 -84 b 175 -103 154 -59 146 -39 b 119 25 122 100 121 168 b 119 245 118 322 119 399 b 120 487 122 576 122 664 b 122 673 117 678 111 681 b 121 683 131 685 142 686 b 162 689 187 692 201 674 z"},"H":{"x_min":0,"x_max":744,"ha":744,"o":"m 181 91 b 190 91 199 91 208 91 b 210 67 213 43 218 19 b 223 -13 230 -44 240 -75 b 249 -106 260 -140 283 -163 b 298 -177 335 -160 332 -139 b 329 -108 319 -78 313 -48 b 306 -16 300 16 296 48 b 294 64 292 80 290 96 b 366 102 441 117 514 137 b 518 126 521 115 524 104 b 528 35 537 -49 591 -97 b 640 -142 702 -114 731 -62 b 761 -9 774 55 785 115 b 788 133 758 126 754 113 b 742 65 734 16 714 -30 b 707 -48 697 -72 680 -84 b 652 -103 631 -59 623 -39 b 596 25 599 100 598 168 b 596 245 595 322 596 399 b 596 487 599 576 599 664 b 599 684 572 688 557 684 b 538 679 522 664 521 644 b 516 505 513 365 518 227 b 496 281 466 331 417 367 b 378 397 331 413 282 418 b 285 497 290 576 296 655 b 297 673 272 678 259 676 b 243 673 220 661 218 642 b 208 568 202 492 200 417 b 183 415 167 412 152 408 b 67 387 -39 326 -38 226 b -37 117 97 92 181 91 z m 386 351 b 451 306 483 234 507 160 b 435 140 362 127 288 121 b 284 163 282 204 281 246 b 280 294 280 343 281 391 b 319 385 355 373 386 351 z m 25 311 b 54 345 95 367 138 379 b 157 385 178 389 199 392 b 198 335 198 277 199 220 b 201 186 202 151 205 117 b 132 115 47 124 8 185 b -18 226 -5 277 25 311 z"},"4":{"x_min":0,"x_max":456,"ha":456,"o":"m 116 76 b 142 86 162 106 176 129 b 180 135 184 141 187 148 b 231 155 275 158 319 159 b 321 126 323 93 326 61 b 329 35 332 10 336 -15 b 340 -36 344 -64 356 -82 b 369 -102 406 -85 405 -63 b 404 -14 403 35 400 84 b 397 135 396 185 396 235 b 395 336 402 437 401 537 b 401 557 374 561 360 557 b 340 552 325 537 323 516 b 316 415 316 312 318 211 b 318 202 318 194 318 185 b 279 184 239 181 200 175 b 219 221 229 272 236 318 b 249 394 250 471 246 548 b 245 564 216 554 217 540 b 220 473 219 405 210 338 b 202 282 190 222 166 169 b 165 169 163 168 161 168 b 132 161 98 153 74 136 b 57 124 40 100 56 82 b 71 65 98 69 116 76 z m 106 126 b 121 132 137 136 152 140 b 147 131 140 122 132 114 b 123 106 102 90 89 97 b 71 107 96 122 106 126 z"},"D":{"x_min":0,"x_max":542,"ha":542,"o":"m 11 182 b -23 154 -35 102 -36 59 b -37 14 -25 -33 1 -70 b 55 -148 152 -169 239 -136 b 323 -103 380 -26 414 55 b 472 54 530 69 579 106 b 595 118 576 131 562 121 b 520 89 472 78 423 79 b 423 80 423 80 423 80 b 458 178 469 288 459 392 b 454 444 444 496 427 546 b 411 592 389 638 352 671 b 319 700 280 714 236 704 b 195 694 159 666 131 635 b 64 560 20 448 24 347 b 26 291 49 246 79 200 b 55 203 32 198 11 182 z m 254 -64 b 195 -111 112 -109 54 -60 b 24 -33 3 3 -2 43 b -8 83 -4 155 40 174 b 59 181 80 177 98 170 b 113 145 125 120 136 94 b 137 89 137 84 138 79 b 143 53 148 24 165 3 b 176 -12 204 5 208 19 b 214 45 209 74 207 102 b 207 107 207 112 206 118 b 246 99 285 81 327 69 b 333 67 339 66 345 64 b 325 15 296 -31 254 -64 z m 66 293 b 38 377 66 474 105 550 b 137 612 215 716 297 671 b 335 650 354 603 367 564 b 381 520 388 472 392 426 b 400 334 393 239 372 150 b 367 130 361 109 354 89 b 328 95 303 104 278 115 b 253 125 229 137 204 150 b 204 160 203 171 203 182 b 201 237 203 291 206 346 b 207 363 184 367 172 365 b 157 362 137 351 134 334 b 127 286 126 236 127 187 b 127 187 126 188 125 188 b 104 222 79 254 66 293 z"},"^":{"x_min":0,"x_max":252,"ha":252,"o":"m 181 527 b 177 540 175 557 164 566 b 152 577 133 576 119 570 b 90 557 75 522 64 494 b 54 464 51 437 50 406 b 50 389 77 399 81 408 b 91 427 100 446 108 466 b 113 476 117 487 122 497 b 122 497 122 497 122 498 b 125 489 127 481 129 472 b 133 450 135 427 143 405 b 147 392 168 393 178 397 b 191 402 201 412 202 427 b 203 460 190 496 181 527 z"},"0":{"x_min":0,"x_max":440,"ha":440,"o":"m 79 409 b 95 448 116 490 149 517 b 184 545 231 547 260 510 b 286 477 298 433 306 393 b 314 349 319 305 321 261 b 325 179 319 90 279 17 b 273 5 263 -13 250 -18 b 238 -23 222 -14 213 -7 b 181 19 167 66 159 104 b 137 209 160 313 180 416 b 189 462 110 447 102 411 b 76 297 54 176 86 61 b 99 12 121 -40 167 -66 b 216 -94 274 -78 313 -40 b 348 -5 367 47 378 94 b 390 145 392 199 388 251 b 381 348 361 472 281 538 b 240 571 190 572 146 544 b 101 515 71 463 51 413 b 44 395 73 395 79 409 z"},"F":{"x_min":0,"x_max":544,"ha":544,"o":"m 488 682 b 439 697 386 695 334 685 b 329 686 322 685 318 684 b 313 683 309 681 304 678 b 271 670 239 660 208 650 b 129 623 48 581 -12 521 b -39 493 -54 453 -21 424 b 13 393 65 386 107 373 b 188 347 255 285 277 202 b 277 184 278 166 279 148 b 247 139 215 128 184 117 b 168 111 166 87 186 94 b 217 104 248 115 280 124 b 281 101 282 77 283 54 b 288 -11 294 -75 311 -138 b 316 -156 351 -141 352 -127 b 361 -38 357 52 354 141 b 388 147 423 150 459 146 b 473 145 492 169 472 171 b 432 174 392 172 353 165 b 351 200 350 235 350 270 b 348 397 352 524 356 652 b 371 652 386 652 401 651 b 442 648 488 633 510 596 b 537 552 522 499 509 454 b 505 437 521 428 535 429 b 552 430 569 441 574 458 b 589 505 599 554 582 602 b 567 644 529 670 488 682 z m 275 282 b 259 309 237 333 211 352 b 181 374 148 388 112 399 b 76 410 21 418 -3 450 b -32 488 31 529 57 548 b 89 572 123 591 159 607 b 199 624 241 637 284 644 b 276 524 274 403 275 282 z"},"`":{"x_min":0,"x_max":185,"ha":185,"o":"m 135 469 b 131 490 119 509 116 531 b 111 555 111 581 110 606 b 109 639 50 618 50 590 b 50 546 54 452 116 451 b 123 451 137 459 135 469 z"},"k":{"x_min":0,"x_max":341,"ha":341,"o":"m 340 109 b 313 69 270 9 214 18 b 186 22 161 39 139 56 b 129 64 119 72 107 78 b 133 91 157 109 176 131 b 206 164 240 211 226 257 b 219 282 174 261 171 243 b 166 208 172 174 150 144 b 131 119 104 101 75 89 b 74 105 72 120 71 136 b 70 148 69 160 68 172 b 94 196 117 223 138 250 b 166 284 191 319 211 357 b 250 428 290 531 248 609 b 230 644 198 670 157 670 b 111 670 73 639 48 602 b -5 522 -15 416 -16 323 b -17 265 -14 207 -9 149 b -4 92 2 33 21 -21 b 31 -50 81 -22 81 1 b 81 15 80 30 79 44 b 87 39 95 35 102 29 b 114 20 126 11 139 3 b 167 -13 201 -23 233 -17 b 296 -6 336 54 367 105 b 377 122 347 121 340 109 z m 63 265 b 60 347 60 430 79 510 b 87 544 97 585 119 613 b 147 648 189 625 207 592 b 246 524 210 433 177 369 b 157 332 133 297 107 265 b 93 249 79 234 65 219 b 64 234 63 250 63 265 z"},"u":{"x_min":0,"x_max":384,"ha":384,"o":"m 380 117 b 370 81 359 44 337 13 b 327 -1 313 -19 298 -1 b 287 11 284 29 281 45 b 267 128 276 211 281 294 b 281 311 258 316 245 314 b 229 311 209 299 205 281 b 204 276 204 271 203 266 b 187 226 176 183 165 141 b 160 122 131 -9 105 5 b 90 13 81 46 77 61 b 70 82 67 105 64 127 b 60 183 69 236 71 292 b 72 309 48 314 35 311 b 19 309 0 297 -4 279 b -19 218 -22 143 -8 81 b 2 37 32 -37 88 -36 b 148 -34 170 44 182 90 b 187 106 191 123 195 140 b 195 130 196 120 196 111 b 200 63 205 5 244 -29 b 279 -60 323 -42 351 -11 b 384 24 397 74 410 119 b 415 136 384 131 380 117 z"},"]":{"x_min":0,"x_max":320,"ha":320,"o":"m 265 230 b 260 310 252 390 241 469 b 231 547 216 626 189 700 b 177 732 161 768 127 783 b 103 795 70 790 54 767 b 40 750 67 743 78 756 b 85 765 97 764 106 759 b 120 752 125 736 129 722 b 138 693 143 663 148 633 b 159 570 166 507 171 443 b 177 378 180 313 184 248 b 188 182 191 115 186 48 b 184 15 179 -17 170 -48 b 166 -63 161 -78 153 -91 b 150 -96 146 -100 143 -104 b 142 -105 139 -105 138 -105 b 139 -105 140 -105 143 -105 b 124 -107 102 -118 98 -138 b 93 -158 111 -166 128 -167 b 210 -170 246 -75 259 -9 b 273 69 271 151 265 230 z"},"U":{"x_min":0,"x_max":578,"ha":578,"o":"m 591 111 b 583 80 523 -89 477 -17 b 460 10 453 46 448 77 b 442 114 439 152 436 190 b 427 348 448 505 450 663 b 450 682 424 685 410 682 b 391 677 376 662 374 642 b 374 631 373 619 372 608 b 335 524 312 435 291 347 b 280 298 269 249 257 201 b 245 152 233 102 211 57 b 201 36 189 12 169 -1 b 157 -9 141 -14 128 -4 b 119 3 115 16 111 26 b 93 71 95 122 96 170 b 99 275 113 381 109 486 b 108 513 106 540 100 567 b 95 593 90 623 76 645 b 52 682 8 707 -32 681 b -38 677 -42 669 -36 663 b -31 657 -20 661 -15 665 b -1 673 13 660 19 649 b 25 638 26 626 27 614 b 30 588 33 561 35 534 b 39 482 39 429 35 377 b 32 324 28 271 25 218 b 22 167 21 114 32 64 b 42 20 64 -22 111 -35 b 153 -46 192 -20 216 14 b 244 52 258 99 271 144 b 285 193 296 243 308 293 b 325 368 342 443 366 516 b 359 413 353 310 358 208 b 362 141 368 68 395 5 b 416 -45 465 -90 521 -57 b 577 -24 606 52 619 113 b 623 130 594 124 591 111 z"},"o":{"x_min":0,"x_max":267,"ha":267,"o":"m 277 132 b 255 123 233 118 211 117 b 212 129 212 141 211 153 b 207 229 170 351 77 356 b 35 358 1 330 -11 291 b -23 253 -13 213 8 181 b -7 134 -19 82 -9 33 b 0 -15 35 -47 86 -41 b 160 -32 196 26 208 90 b 235 92 262 99 287 111 b 305 120 295 139 277 132 z m 115 3 b 72 -8 61 37 60 71 b 60 89 62 107 66 125 b 99 104 138 92 177 90 b 172 50 155 14 115 3 z m 179 118 b 143 121 109 133 79 155 b 77 156 76 158 74 159 b 78 172 82 186 87 200 b 92 218 72 229 57 228 b 46 227 36 223 27 216 b 24 224 21 232 20 240 b 13 270 18 319 54 328 b 91 336 123 303 140 274 b 158 245 169 212 175 178 b 177 161 179 139 179 118 z"},"N":{"x_min":0,"x_max":457,"ha":457,"o":"m -14 494 b -25 417 -27 339 -24 261 b -22 222 -20 184 -15 145 b -11 108 -7 69 7 33 b 13 20 32 22 42 25 b 56 31 66 41 67 56 b 68 75 67 95 66 114 b 83 209 90 305 105 400 b 113 451 124 502 139 552 b 147 575 155 598 165 620 b 169 631 174 641 180 650 b 193 667 207 659 215 642 b 223 622 227 600 229 579 b 232 549 234 519 236 489 b 240 433 242 377 244 321 b 245 266 248 210 253 154 b 258 107 263 51 288 10 b 314 -31 365 -40 406 -16 b 449 9 480 59 498 104 b 505 121 477 121 472 108 b 463 85 451 63 435 43 b 422 26 393 -13 366 -1 b 352 5 348 29 345 42 b 340 68 339 96 336 122 b 323 234 322 347 309 458 b 303 512 295 566 275 616 b 264 648 230 694 191 684 b 151 674 136 623 123 590 b 104 540 92 488 82 436 b 71 373 64 310 56 247 b 56 258 56 270 55 282 b 54 357 58 432 62 507 b 63 524 39 529 26 527 b 11 524 -11 512 -14 494 z"},"+":{"x_min":0,"x_max":303,"ha":303,"o":"m 244 218 b 225 219 207 220 189 220 b 188 273 189 327 186 380 b 185 399 162 402 148 398 b 130 394 116 380 114 361 b 111 313 112 265 114 217 b 97 215 80 213 63 210 b 50 207 43 183 62 186 b 80 188 98 190 116 191 b 116 188 116 185 116 181 b 119 125 119 62 140 9 b 148 -11 182 6 185 21 b 196 77 190 137 189 194 b 202 193 216 193 230 192 b 238 191 248 195 251 202 b 254 209 252 217 244 218 z"},"G":{"x_min":0,"x_max":530,"ha":530,"o":"m -34 6 b -46 -39 -29 -86 3 -119 b 39 -158 94 -176 146 -178 b 201 -181 256 -168 301 -135 b 343 -104 373 -59 390 -10 b 393 0 396 10 399 20 b 468 23 535 47 570 108 b 581 125 549 125 542 112 b 513 63 457 49 404 46 b 412 90 412 135 412 178 b 411 248 413 318 410 388 b 409 413 369 396 365 381 b 364 377 363 374 362 371 b 339 332 316 293 293 254 b 271 217 247 178 212 152 b 179 129 138 122 106 151 b 77 177 69 223 66 260 b 58 342 78 426 115 500 b 145 561 194 627 261 651 b 307 667 347 625 340 579 b 332 528 282 505 235 506 b 219 506 208 481 229 481 b 276 481 323 499 351 537 b 376 573 380 620 355 656 b 327 695 272 700 229 685 b 179 668 136 635 102 596 b 33 515 -5 405 -9 301 b -11 249 -3 189 28 146 b 42 127 61 114 81 106 b 75 105 68 104 61 102 b 14 89 -22 54 -34 6 z m 289 -76 b 262 -114 223 -133 177 -137 b 127 -140 76 -128 40 -91 b 10 -60 -5 -10 12 31 b 31 79 88 86 132 78 b 184 70 230 45 280 32 b 296 28 314 25 332 22 b 324 -13 310 -46 289 -76 z m 289 200 b 310 231 330 264 349 298 b 346 270 344 241 344 213 b 343 159 345 104 337 50 b 293 57 251 72 208 88 b 192 94 174 99 157 103 b 157 103 158 103 159 103 b 215 116 256 153 289 200 z"},"q":{"x_min":0,"x_max":371,"ha":371,"o":"m 345 -86 b 328 -71 309 -59 289 -49 b 282 -45 272 -41 267 -34 b 255 -19 270 -4 280 7 b 314 47 352 82 395 112 b 411 124 392 138 378 128 b 345 104 314 78 285 49 b 277 40 264 29 253 17 b 253 20 253 23 253 26 b 252 127 265 227 271 328 b 272 345 249 350 237 348 b 221 345 201 333 198 316 b 193 289 189 262 186 235 b 185 236 185 238 184 239 b 174 266 160 296 133 310 b 72 342 15 272 -4 221 b -25 160 -26 88 -1 28 b 10 -1 29 -30 60 -40 b 85 -49 112 -37 131 -19 b 152 2 164 31 173 60 b 173 48 173 36 173 23 b 174 -71 186 -170 227 -256 b 245 -293 271 -333 313 -344 b 350 -354 386 -334 403 -301 b 442 -228 402 -136 345 -86 z m 152 85 b 145 60 138 33 124 10 b 116 -2 102 -19 89 -2 b 81 9 76 23 71 36 b 62 64 58 94 56 123 b 55 151 59 179 66 206 b 72 227 81 262 98 277 b 121 297 146 248 153 232 b 162 211 168 190 174 168 b 167 141 159 113 152 85 z m 385 -248 b 385 -266 381 -295 367 -307 b 351 -320 328 -299 319 -287 b 307 -271 299 -250 292 -232 b 273 -180 263 -123 258 -67 b 274 -76 291 -84 306 -96 b 337 -120 363 -151 376 -189 b 383 -208 386 -228 385 -248 z"},"d":{"x_min":0,"x_max":461,"ha":461,"o":"m 457 130 b 442 82 424 34 396 -8 b 385 -24 366 -52 344 -45 b 320 -38 309 -19 300 2 b 281 44 272 90 266 136 b 353 196 414 289 438 392 b 451 449 451 508 434 565 b 420 612 389 670 330 659 b 271 648 236 584 216 533 b 192 471 183 405 178 339 b 176 313 176 286 176 259 b 166 279 153 299 133 310 b 72 342 15 272 -4 221 b -25 160 -26 88 -1 28 b 10 -1 29 -30 60 -40 b 85 -49 112 -37 131 -19 b 154 3 166 35 175 65 b 179 81 183 96 187 112 b 195 56 207 -4 242 -48 b 261 -73 292 -93 325 -91 b 355 -88 381 -70 400 -47 b 443 5 468 68 488 132 b 493 149 462 144 457 130 z m 152 85 b 145 60 138 33 124 10 b 116 -2 102 -19 89 -2 b 81 9 76 23 71 36 b 62 64 58 94 56 123 b 55 151 59 179 66 206 b 72 227 81 262 98 277 b 121 297 146 248 153 232 b 162 211 168 190 174 168 b 167 141 159 113 152 85 z m 257 319 b 258 374 266 428 277 482 b 286 527 298 573 324 611 b 326 614 328 617 330 620 b 332 621 339 625 337 625 b 348 628 360 620 368 614 b 386 598 398 569 405 547 b 419 499 418 448 409 400 b 390 306 339 221 263 163 b 258 215 255 267 257 319 z"},"1":{"x_min":0,"x_max":359,"ha":359,"o":"m 80 448 b 94 471 110 491 129 510 b 137 517 154 537 167 531 b 179 526 181 503 183 492 b 192 437 190 377 189 321 b 189 262 187 202 187 143 b 186 115 186 86 186 58 b 186 28 185 -4 191 -34 b 191 -35 191 -35 191 -36 b 176 -36 162 -39 148 -44 b 133 -50 131 -74 150 -67 b 180 -56 205 -62 235 -67 b 258 -70 280 -69 300 -57 b 318 -48 308 -26 290 -37 b 278 -44 265 -44 251 -42 b 261 -35 268 -24 268 -13 b 270 22 266 59 265 94 b 264 130 264 166 264 202 b 264 273 262 345 252 416 b 246 461 234 552 174 559 b 147 562 125 540 107 523 b 86 502 68 478 52 453 b 42 436 72 436 80 448 z"},"5":{"x_min":0,"x_max":443,"ha":443,"o":"m 126 505 b 123 502 121 498 120 494 b 105 442 96 386 90 332 b 87 292 150 304 157 334 b 157 334 157 334 157 334 b 188 374 249 362 279 328 b 304 299 312 256 316 220 b 321 177 319 133 310 91 b 306 70 301 56 293 40 b 282 19 266 -2 244 -12 b 212 -27 172 -19 147 5 b 121 31 112 68 112 103 b 112 121 80 110 80 95 b 78 20 124 -59 204 -67 b 284 -74 351 -10 375 61 b 393 112 396 172 390 226 b 384 277 367 334 324 367 b 298 386 266 390 235 387 b 209 385 183 381 162 368 b 168 413 173 458 176 503 b 177 508 174 512 170 514 b 173 515 176 516 178 517 b 228 533 306 567 342 508 b 351 495 381 510 372 523 b 345 566 292 572 246 563 b 215 556 186 543 155 535 b 132 529 91 521 78 549 b 72 562 45 549 51 536 b 63 506 95 501 126 505 z"}}}
